<svg xmlns="http://www.w3.org/2000/svg" version="1.1" xmlns:xlink="http://www.w3.org/1999/xlink" xmlns:svgjs="http://svgjs.com/svgjs" width="300" height="205" preserveAspectRatio="none" viewBox="0 0 300 205"><g mask="url(&quot;#SvgjsMask1461&quot;)" fill="none"><rect width="300" height="205" x="0" y="0" fill="#0e2a47"></rect><g transform="translate(0, 0)" stroke-linecap="round" stroke="url(#SvgjsLinearGradient1462)"><path d="M70 49.1 L70 79.1" stroke-width="15"></path><path d="M70 101.6 L70 116.6" stroke-width="15"></path><path d="M70 139.1 L70 155.9" stroke-width="15"></path><path d="M90 87.34 L90 117.66" stroke-width="15"></path><path d="M110 62.97 L110 77.97" stroke-width="15"></path><path d="M110 100.47 L110 142.03" stroke-width="15"></path><path d="M130 84.27 L130 120.74000000000001" stroke-width="15"></path><path d="M150 82.9 L150 122.1" stroke-width="15"></path><path d="M170 82.25 L170 122.75" stroke-width="15"></path><path d="M190 47.47 L190 77.47" stroke-width="15"></path><path d="M190 99.97 L190 114.97" stroke-width="15"></path><path d="M190 137.47 L190 157.53" stroke-width="15"></path><path d="M210 49.3 L210 79.3" stroke-width="15"></path><path d="M210 101.8 L210 116.8" stroke-width="15"></path><path d="M210 139.3 L210 155.7" stroke-width="15"></path><path d="M230 82.28 L230 122.72" stroke-width="15"></path></g></g><defs><mask id="SvgjsMask1461"><rect width="300" height="205" fill="#ffffff"></rect></mask><linearGradient x1="51" y1="102.5" x2="249" y2="102.5" gradientUnits="userSpaceOnUse" id="SvgjsLinearGradient1462"><stop stop-color="rgba(58, 124, 195, 1)" offset="0.36"></stop><stop stop-color="rgba(255, 255, 255, 1)" offset="1"></stop></linearGradient></defs></svg>