<svg xmlns="http://www.w3.org/2000/svg" version="1.1" xmlns:xlink="http://www.w3.org/1999/xlink" xmlns:svgjs="http://svgjs.com/svgjs" width="1440" height="560" preserveAspectRatio="none" viewBox="0 0 1440 560"><g mask="url(&quot;#SvgjsMask1073&quot;)" fill="none"><rect width="1440" height="560" x="0" y="0" fill="rgba(14, 42, 71, 1)"></rect><path d="M0,334.313C73.256,332.29,153.705,374.719,215.397,335.164C277.089,295.61,274.473,205.909,304.517,139.068C334.333,72.735,386.688,16.311,391.339,-56.266C396.535,-137.35,390.06,-230.864,331.855,-287.554C273.881,-344.019,180.516,-333.327,99.876,-340.145C33.564,-345.752,-33.16,-348.156,-95.032,-323.648C-153.556,-300.466,-198.306,-255.086,-238.063,-206.282C-276.818,-158.707,-296.617,-102.441,-321.075,-46.164C-354.825,31.494,-429.306,104.55,-408.86,186.72C-388.695,267.763,-301.732,318.917,-223.179,347.273C-151.639,373.098,-76.03,336.412,0,334.313" fill="#0c243c"></path><path d="M1440 1211.964C1560.599 1193.138 1614.31 1051.708 1700.378 965.1569999999999 1766.086 899.0799999999999 1843.182 846.457 1885.85 763.613 1929.942 678.006 1947.547 583.457 1946.565 487.16700000000003 1945.471 379.847 1944.843 264.273 1879.886 178.836 1813.6770000000001 91.75200000000001 1702.974 52.168000000000006 1596.56 26.80600000000004 1493.903 2.3390000000000555 1389.532 14.330000000000041 1286.558 37.424999999999955 1177.446 61.89699999999999 1057.661 80.74900000000002 983.373 164.32999999999998 908.836 248.19099999999997 912.122 370.826 892.103 481.224 871.28 596.056 820.616 714.7139999999999 863.916 823.0889999999999 907.715 932.7149999999999 1023.706 989.466 1121.5520000000001 1055.5149999999999 1221.603 1123.0529999999999 1320.731 1230.583 1440 1211.964" fill="#103052"></path></g><defs><mask id="SvgjsMask1073"><rect width="1440" height="560" fill="#ffffff"></rect></mask></defs></svg>